<svg width="377" height="111" viewBox="0 0 377 111" fill="none" xmlns="http://www.w3.org/2000/svg">
<rect width="377" height="111" rx="40" fill="#357CED"/>
<path d="M88.0984 68V46.24L87.2984 42.2L88.0984 39.68H96.8984V44.48L96.4984 50.84H97.6984L103.738 39.68H113.298V42.08L105.378 53.32L112.098 61.64L116.058 65.6V68H105.458L98.5784 58.2L96.8984 58.6V63.2L97.2984 65.6L96.8984 68H88.0984ZM123.661 68.4C121.874 68.4 120.421 67.9867 119.301 67.16C118.208 66.3067 117.661 64.8267 117.661 62.72C117.661 60.7733 118.301 59.3067 119.581 58.32C120.888 57.3067 122.648 56.8 124.861 56.8C126.061 56.8 127.021 56.92 127.741 57.16C128.461 57.3733 129.008 57.5867 129.381 57.8L129.661 57.6C129.661 56.7733 129.514 56.16 129.221 55.76C128.928 55.3333 128.221 55.12 127.101 55.12C126.114 55.12 125.101 55.2267 124.061 55.44C123.048 55.6267 122.088 55.88 121.181 56.2C120.274 56.4933 119.501 56.8133 118.861 57.16V49.96C119.288 49.8267 119.968 49.6667 120.901 49.48C121.834 49.2933 122.954 49.1333 124.261 49C125.568 48.84 126.968 48.76 128.461 48.76C130.968 48.76 132.954 49.0667 134.421 49.68C135.888 50.2667 136.928 51.1333 137.541 52.28C138.181 53.4 138.501 54.7467 138.501 56.32V61.64L139.301 65.68L138.501 68.04H130.061V66.08L129.661 65.88C129.234 66.4933 128.501 67.0667 127.461 67.6C126.448 68.1333 125.181 68.4 123.661 68.4ZM128.181 63.16C128.581 63.16 128.914 63.0933 129.181 62.96C129.448 62.8267 129.608 62.7467 129.661 62.72V61.84C129.661 61.44 129.541 61.0933 129.301 60.8C129.061 60.5067 128.701 60.36 128.221 60.36C127.794 60.36 127.394 60.48 127.021 60.72C126.648 60.9333 126.461 61.32 126.461 61.88C126.461 62.7333 127.034 63.16 128.181 63.16ZM142.65 68V55.96L141.85 51.56L143.09 49.12H150.65V50.84L151.01 51.08C151.303 50.8133 151.703 50.5067 152.21 50.16C152.743 49.7867 153.383 49.4533 154.13 49.16C154.877 48.8667 155.717 48.72 156.65 48.72C158.837 48.72 160.45 49.4 161.49 50.76C162.53 52.12 163.05 54.0267 163.05 56.48V61.6L163.85 65.6L163.05 68H154.21V57.88C154.21 57.08 154.023 56.4933 153.65 56.12C153.303 55.72 152.703 55.52 151.85 55.52L151.45 55.92V68H142.65ZM180.66 68.4C179.46 68.4 178.5 68.28 177.78 68.04C177.087 67.8267 176.58 67.6133 176.26 67.4C175.967 67.16 175.82 67.04 175.82 67.04V68.04H167.02V46.12L166.18 42.12L167.02 39.72H175.82V46.16L175.42 50.68L175.82 50.88C176.167 50.5333 176.527 50.2 176.9 49.88C177.3 49.56 177.794 49.2933 178.38 49.08C178.967 48.84 179.727 48.72 180.66 48.72C183.034 48.72 184.82 49.48 186.02 51C187.247 52.52 187.86 54.92 187.86 58.2C187.86 60.6533 187.514 62.64 186.82 64.16C186.154 65.6533 185.274 66.7333 184.18 67.4C183.087 68.0667 181.914 68.4 180.66 68.4ZM177.3 61.64C177.914 61.64 178.354 61.4 178.62 60.92C178.914 60.4133 179.06 59.7467 179.06 58.92C179.06 57.9067 178.807 57.12 178.3 56.56C177.82 55.9733 177.127 55.68 176.22 55.68L175.82 56.08V61.12C175.82 61.12 175.967 61.2133 176.26 61.4C176.554 61.56 176.9 61.64 177.3 61.64ZM195.848 68.4C194.062 68.4 192.608 67.9867 191.488 67.16C190.395 66.3067 189.848 64.8267 189.848 62.72C189.848 60.7733 190.488 59.3067 191.768 58.32C193.075 57.3067 194.835 56.8 197.048 56.8C198.248 56.8 199.208 56.92 199.928 57.16C200.648 57.3733 201.195 57.5867 201.568 57.8L201.848 57.6C201.848 56.7733 201.702 56.16 201.408 55.76C201.115 55.3333 200.408 55.12 199.288 55.12C198.302 55.12 197.288 55.2267 196.248 55.44C195.235 55.6267 194.275 55.88 193.368 56.2C192.462 56.4933 191.688 56.8133 191.048 57.16V49.96C191.475 49.8267 192.155 49.6667 193.088 49.48C194.022 49.2933 195.142 49.1333 196.448 49C197.755 48.84 199.155 48.76 200.648 48.76C203.155 48.76 205.142 49.0667 206.608 49.68C208.075 50.2667 209.115 51.1333 209.728 52.28C210.368 53.4 210.688 54.7467 210.688 56.32V61.64L211.488 65.68L210.688 68.04H202.248V66.08L201.848 65.88C201.422 66.4933 200.688 67.0667 199.648 67.6C198.635 68.1333 197.368 68.4 195.848 68.4ZM200.368 63.16C200.768 63.16 201.102 63.0933 201.368 62.96C201.635 62.8267 201.795 62.7467 201.848 62.72V61.84C201.848 61.44 201.728 61.0933 201.488 60.8C201.248 60.5067 200.888 60.36 200.408 60.36C199.982 60.36 199.582 60.48 199.208 60.72C198.835 60.9333 198.648 61.32 198.648 61.88C198.648 62.7333 199.222 63.16 200.368 63.16ZM214.838 68V55.96L214.038 51.56L215.278 49.12H222.838V50.84L223.198 51.08C223.491 50.8133 223.891 50.5067 224.398 50.16C224.931 49.7867 225.571 49.4533 226.318 49.16C227.064 48.8667 227.904 48.72 228.838 48.72C231.024 48.72 232.638 49.4 233.678 50.76C234.718 52.12 235.238 54.0267 235.238 56.48V61.6L236.038 65.6L235.238 68H226.398V57.88C226.398 57.08 226.211 56.4933 225.838 56.12C225.491 55.72 224.891 55.52 224.038 55.52L223.638 55.92V68H214.838ZM247.017 68L248.937 61.24V56.16L251.897 54.96L257.497 39.72H269.537L276.377 57.64L279.457 63.32V68H270.777L268.777 62.04H257.937L256.217 68H247.017ZM260.577 55.04H266.577L263.937 47.08H263.097L260.577 55.04ZM281.878 68V46.08L281.478 42.08L281.878 39.68H290.718V68H281.878Z" fill="#FF8427"/>
</svg>
