<svg width="47" height="57" viewBox="0 0 47 57" fill="none" xmlns="http://www.w3.org/2000/svg">
<g filter="url(#filter0_bi_47_187)">
<path d="M16.9091 15L29.3939 15C32.7772 15 36.0396 16.2579 38.5471 18.5292V18.5292C41.0158 20.7654 42.5805 23.8279 42.9459 27.1387L43 27.629V32.5V32.5C43 38.8513 37.8513 44 31.5 44H16.9091" stroke="#1E212B" stroke-width="7.5"/>
</g>
<g filter="url(#filter1_i_47_187)">
<path d="M14.8772 31.6436H5.74639L5.69756 26.3213H13.2415C14.5761 26.3213 15.6585 26.1585 16.4886 25.833C17.3349 25.5075 17.9534 25.0355 18.344 24.417C18.7347 23.7822 18.93 23.001 18.93 22.0732C18.93 21.0153 18.7347 20.1608 18.344 19.5098C17.9534 18.8587 17.3349 18.3867 16.4886 18.0938C15.6585 17.7845 14.5843 17.6299 13.2659 17.6299H8.62725V47H0.668264V11.4531H13.2659C15.3981 11.4531 17.3024 11.6484 18.9788 12.0391C20.6552 12.4297 22.0794 13.0319 23.2513 13.8457C24.4394 14.6595 25.3427 15.6768 25.9612 16.8975C26.5797 18.1182 26.889 19.5586 26.889 21.2188C26.889 22.6673 26.5634 24.0182 25.9124 25.2715C25.2776 26.5247 24.2522 27.542 22.8362 28.3232C21.4202 29.1045 19.5241 29.5277 17.1478 29.5928L14.8772 31.6436ZM14.5599 47H3.72002L6.60088 40.8477H14.5599C15.7806 40.8477 16.7734 40.6523 17.5384 40.2617C18.3034 39.8711 18.8649 39.3421 19.223 38.6748C19.581 38.0075 19.7601 37.2588 19.7601 36.4287C19.7601 35.4521 19.5892 34.6058 19.2474 33.8896C18.9218 33.1735 18.401 32.6201 17.6849 32.2295C16.985 31.8389 16.0491 31.6436 14.8772 31.6436H7.74834L7.79717 26.3213H16.513L18.3685 28.4209C20.6308 28.3721 22.4375 28.7383 23.7884 29.5195C25.1556 30.2845 26.1403 31.2936 26.7425 32.5469C27.3447 33.8001 27.6458 35.1266 27.6458 36.5264C27.6458 38.8376 27.1494 40.7744 26.1565 42.3369C25.1637 43.8831 23.6907 45.0469 21.7376 45.8281C19.8008 46.6094 17.4082 47 14.5599 47Z" fill="#357DED"/>
</g>
<path d="M14.8772 31.6436V32.5436H15.2235L15.4805 32.3114L14.8772 31.6436ZM5.74639 31.6436L4.84643 31.6518L4.85461 32.5436H5.74639V31.6436ZM5.69756 26.3213V25.4213H4.78927L4.7976 26.3295L5.69756 26.3213ZM16.4886 25.833L16.1655 24.993L16.16 24.9951L16.4886 25.833ZM18.344 24.417L19.105 24.8976L19.1105 24.8887L18.344 24.417ZM16.4886 18.0938L16.1744 18.9371L16.1842 18.9408L16.1942 18.9442L16.4886 18.0938ZM8.62725 17.6299V16.7299H7.72725V17.6299H8.62725ZM8.62725 47V47.9H9.52725V47H8.62725ZM0.668264 47H-0.231736V47.9H0.668264V47ZM0.668264 11.4531V10.5531H-0.231736V11.4531H0.668264ZM23.2513 13.8457L22.7379 14.585L22.7427 14.5882L23.2513 13.8457ZM25.9124 25.2715L25.1137 24.8566L25.1095 24.8648L25.9124 25.2715ZM17.1478 29.5928L17.1231 28.6931L16.791 28.7022L16.5445 28.9249L17.1478 29.5928ZM3.72002 47L2.90495 46.6183L2.30481 47.9H3.72002V47ZM6.60088 40.8477V39.9477H6.02853L5.78581 40.466L6.60088 40.8477ZM19.223 38.6748L18.4299 38.2493L19.223 38.6748ZM19.2474 33.8896L18.428 34.2621L18.4315 34.2697L18.4351 34.2773L19.2474 33.8896ZM17.6849 32.2295L17.2462 33.0154L17.2539 33.0196L17.6849 32.2295ZM7.74834 31.6436L6.84838 31.6353L6.84005 32.5436H7.74834V31.6436ZM7.79717 26.3213V25.4213H6.90539L6.89721 26.313L7.79717 26.3213ZM16.513 26.3213L17.1874 25.7253L16.9187 25.4213H16.513V26.3213ZM18.3685 28.4209L17.6941 29.0169L17.9705 29.3297L18.3879 29.3207L18.3685 28.4209ZM23.7884 29.5195L23.3378 30.2987L23.3489 30.3049L23.7884 29.5195ZM26.1565 42.3369L26.9139 42.8232L26.9162 42.8196L26.1565 42.3369ZM21.7376 45.8281L21.4033 44.9925L21.4009 44.9935L21.7376 45.8281ZM14.8772 30.7436H5.74639V32.5436H14.8772V30.7436ZM6.64635 31.6353L6.59752 26.313L4.7976 26.3295L4.84643 31.6518L6.64635 31.6353ZM5.69756 27.2213H13.2415V25.4213H5.69756V27.2213ZM13.2415 27.2213C14.6381 27.2213 15.8439 27.0526 16.8172 26.6709L16.16 24.9951C15.4731 25.2645 14.5142 25.4213 13.2415 25.4213V27.2213ZM16.8117 26.673C17.7948 26.2949 18.5882 25.7158 19.105 24.8976L17.5831 23.9364C17.3186 24.3552 16.8751 24.7201 16.1655 24.993L16.8117 26.673ZM19.1105 24.8887C19.6075 24.0811 19.83 23.127 19.83 22.0732H18.03C18.03 22.875 17.8618 23.4834 17.5776 23.9453L19.1105 24.8887ZM19.83 22.0732C19.83 20.9135 19.6171 19.8822 19.1158 19.0467L17.5723 19.9728C17.8523 20.4394 18.03 21.1171 18.03 22.0732H19.83ZM19.1158 19.0467C18.5976 18.1831 17.7914 17.5923 16.783 17.2433L16.1942 18.9442C16.8785 19.1811 17.3092 19.5344 17.5723 19.9728L19.1158 19.0467ZM16.8028 17.2504C15.8358 16.8901 14.6442 16.7299 13.2659 16.7299V18.5299C14.5243 18.5299 15.4812 18.6789 16.1744 18.9371L16.8028 17.2504ZM13.2659 16.7299H8.62725V18.5299H13.2659V16.7299ZM7.72725 17.6299V47H9.52725V17.6299H7.72725ZM8.62725 46.1H0.668264V47.9H8.62725V46.1ZM1.56826 47V11.4531H-0.231736V47H1.56826ZM0.668264 12.3531H13.2659V10.5531H0.668264V12.3531ZM13.2659 12.3531C15.3449 12.3531 17.1787 12.5437 18.7746 12.9156L19.183 11.1625C17.426 10.7531 15.4512 10.5531 13.2659 10.5531V12.3531ZM18.7746 12.9156C20.3625 13.2856 21.6766 13.8479 22.7379 14.5849L23.7646 13.1065C22.4822 12.2159 20.948 11.5738 19.183 11.1625L18.7746 12.9156ZM22.7427 14.5882C23.8129 15.3212 24.6119 16.2255 25.1584 17.3042L26.7641 16.4907C26.0736 15.128 25.066 13.9978 23.7599 13.1032L22.7427 14.5882ZM25.1584 17.3042C25.7008 18.3748 25.989 19.6702 25.989 21.2188H27.789C27.789 19.447 27.4586 17.8616 26.7641 16.4907L25.1584 17.3042ZM25.989 21.2188C25.989 22.5267 25.6965 23.7349 25.1137 24.8566L26.7111 25.6864C27.4304 24.3016 27.789 22.8079 27.789 21.2188H25.989ZM25.1095 24.8648C24.5682 25.9335 23.6839 26.8277 22.4015 27.5352L23.271 29.1113C24.8206 28.2563 25.987 27.116 26.7153 25.6781L25.1095 24.8648ZM22.4015 27.5352C21.1565 28.2221 19.4182 28.6302 17.1231 28.6931L17.1724 30.4924C19.6299 30.4251 21.684 29.9869 23.271 29.1113L22.4015 27.5352ZM16.5445 28.9249L14.274 30.9757L15.4805 32.3114L17.751 30.2607L16.5445 28.9249ZM14.5599 46.1H3.72002V47.9H14.5599V46.1ZM4.53509 47.3817L7.41595 41.2293L5.78581 40.466L2.90495 46.6183L4.53509 47.3817ZM6.60088 41.7477H14.5599V39.9477H6.60088V41.7477ZM14.5599 41.7477C15.8668 41.7477 17.014 41.54 17.9477 41.0633L17.1291 39.4602C16.5328 39.7647 15.6944 39.9477 14.5599 39.9477V41.7477ZM17.9477 41.0633C18.8532 40.6009 19.56 39.9502 20.016 39.1003L18.4299 38.2493C18.1698 38.734 17.7535 39.1413 17.1291 39.4602L17.9477 41.0633ZM20.016 39.1003C20.4509 38.2899 20.6601 37.3927 20.6601 36.4287H18.8601C18.8601 37.1249 18.7112 37.7251 18.4299 38.2493L20.016 39.1003ZM20.6601 36.4287C20.6601 35.3483 20.4709 34.3638 20.0596 33.502L18.4351 34.2773C18.7074 34.8477 18.8601 35.556 18.8601 36.4287H20.6601ZM20.0667 33.5172C19.6573 32.6165 18.9965 31.9197 18.1158 31.4394L17.2539 33.0196C17.8055 33.3205 18.1864 33.7305 18.428 34.2621L20.0667 33.5172ZM18.1235 31.4436C17.2417 30.9514 16.1365 30.7436 14.8772 30.7436V32.5436C15.9617 32.5436 16.7283 32.7263 17.2462 33.0154L18.1235 31.4436ZM14.8772 30.7436H7.74834V32.5436H14.8772V30.7436ZM8.6483 31.6518L8.69713 26.3295L6.89721 26.313L6.84838 31.6353L8.6483 31.6518ZM7.79717 27.2213H16.513V25.4213H7.79717V27.2213ZM15.8386 26.9173L17.6941 29.0169L19.0429 27.8249L17.1874 25.7253L15.8386 26.9173ZM18.3879 29.3207C20.5553 29.2739 22.1799 29.629 23.3378 30.2986L24.2389 28.7404C22.6951 27.8476 20.7063 27.4702 18.349 27.5211L18.3879 29.3207ZM23.3489 30.3049C24.5757 30.9914 25.4193 31.8712 25.9313 32.9367L27.5537 32.1571C26.8613 30.7161 25.7354 29.5776 24.2278 28.7341L23.3489 30.3049ZM25.9313 32.9367C26.4746 34.0675 26.7458 35.2606 26.7458 36.5264H28.5458C28.5458 34.9926 28.2148 33.5328 27.5537 32.1571L25.9313 32.9367ZM26.7458 36.5264C26.7458 38.709 26.2777 40.468 25.3969 41.8542L26.9162 42.8196C28.021 41.0808 28.5458 38.9662 28.5458 36.5264H26.7458ZM25.3992 41.8506C24.5218 43.2171 23.2086 44.2704 21.4033 44.9925L22.0719 46.6638C24.1728 45.8234 25.8056 44.5492 26.9139 42.8232L25.3992 41.8506ZM21.4009 44.9935C19.6023 45.719 17.3321 46.1 14.5599 46.1V47.9C17.4842 47.9 19.9992 47.4998 22.0743 46.6628L21.4009 44.9935Z" fill="#1E212B"/>
<defs>
<filter id="filter0_bi_47_187" x="12.9091" y="7.25" width="37.8409" height="44.5" filterUnits="userSpaceOnUse" color-interpolation-filters="sRGB">
<feFlood flood-opacity="0" result="BackgroundImageFix"/>
<feGaussianBlur in="BackgroundImageFix" stdDeviation="2"/>
<feComposite in2="SourceAlpha" operator="in" result="effect1_backgroundBlur_47_187"/>
<feBlend mode="normal" in="SourceGraphic" in2="effect1_backgroundBlur_47_187" result="shape"/>
<feColorMatrix in="SourceAlpha" type="matrix" values="0 0 0 0 0 0 0 0 0 0 0 0 0 0 0 0 0 0 127 0" result="hardAlpha"/>
<feOffset dy="4"/>
<feGaussianBlur stdDeviation="2"/>
<feComposite in2="hardAlpha" operator="arithmetic" k2="-1" k3="1"/>
<feColorMatrix type="matrix" values="0 0 0 0 0 0 0 0 0 0 0 0 0 0 0 0 0 0 0.25 0"/>
<feBlend mode="normal" in2="shape" result="effect2_innerShadow_47_187"/>
</filter>
<filter id="filter1_i_47_187" x="0.668274" y="11.4531" width="26.9775" height="39.5469" filterUnits="userSpaceOnUse" color-interpolation-filters="sRGB">
<feFlood flood-opacity="0" result="BackgroundImageFix"/>
<feBlend mode="normal" in="SourceGraphic" in2="BackgroundImageFix" result="shape"/>
<feColorMatrix in="SourceAlpha" type="matrix" values="0 0 0 0 0 0 0 0 0 0 0 0 0 0 0 0 0 0 127 0" result="hardAlpha"/>
<feOffset dy="4"/>
<feGaussianBlur stdDeviation="2"/>
<feComposite in2="hardAlpha" operator="arithmetic" k2="-1" k3="1"/>
<feColorMatrix type="matrix" values="0 0 0 0 0 0 0 0 0 0 0 0 0 0 0 0 0 0 0.25 0"/>
<feBlend mode="normal" in2="shape" result="effect1_innerShadow_47_187"/>
</filter>
</defs>
</svg>
