<svg width="49" height="57" viewBox="0 0 49 57" fill="none" xmlns="http://www.w3.org/2000/svg">
<g filter="url(#filter0_bi_47_182)">
<path d="M19 15L31.421 15C34.805 15 38.0675 16.2612 40.5716 18.5374V18.5374C43.0262 20.7686 44.5811 23.8198 44.9437 27.1171L45 27.629V32.5V32.5C45 38.8513 39.8513 44 33.5 44H20.5" stroke="#1E212B" stroke-width="7.5"/>
</g>
<g filter="url(#filter1_i_47_182)">
<path d="M15.6172 32.0293H6.12109L6.07031 26.4941H13.916C15.304 26.4941 16.4297 26.3249 17.293 25.9863C18.1732 25.6478 18.8164 25.1569 19.2227 24.5137C19.6289 23.8535 19.832 23.041 19.832 22.0762C19.832 20.9759 19.6289 20.0872 19.2227 19.4102C18.8164 18.7331 18.1732 18.2422 17.293 17.9375C16.4297 17.6159 15.3125 17.4551 13.9414 17.4551H9.11719V48H0.839844V11.0312H13.9414C16.1589 11.0312 18.1393 11.2344 19.8828 11.6406C21.6263 12.0469 23.1074 12.6732 24.3262 13.5195C25.5618 14.3659 26.5013 15.4238 27.1445 16.6934C27.7878 17.9629 28.1094 19.4609 28.1094 21.1875C28.1094 22.694 27.7708 24.099 27.0938 25.4023C26.4336 26.7057 25.3672 27.7637 23.8945 28.5762C22.4219 29.3887 20.4499 29.8288 17.9785 29.8965L15.6172 32.0293ZM15.2871 48H4.01367L7.00977 41.6016H15.2871C16.5566 41.6016 17.5892 41.3984 18.3848 40.9922C19.1803 40.5859 19.7643 40.0358 20.1367 39.3418C20.5091 38.6478 20.6953 37.8691 20.6953 37.0059C20.6953 35.9902 20.5176 35.11 20.1621 34.3652C19.8236 33.6204 19.2819 33.0449 18.5371 32.6387C17.8092 32.2324 16.8359 32.0293 15.6172 32.0293H8.20312L8.25391 26.4941H17.3184L19.248 28.6777C21.6009 28.627 23.4798 29.0078 24.8848 29.8203C26.3066 30.6159 27.3307 31.6654 27.957 32.9688C28.5833 34.2721 28.8965 35.6517 28.8965 37.1074C28.8965 39.5111 28.3802 41.5254 27.3477 43.1504C26.3151 44.7585 24.7832 45.9688 22.752 46.7812C20.7376 47.5938 18.2493 48 15.2871 48Z" fill="#357DED"/>
</g>
<defs>
<filter id="filter0_bi_47_182" x="15" y="7.25" width="37.75" height="44.5" filterUnits="userSpaceOnUse" color-interpolation-filters="sRGB">
<feFlood flood-opacity="0" result="BackgroundImageFix"/>
<feGaussianBlur in="BackgroundImageFix" stdDeviation="2"/>
<feComposite in2="SourceAlpha" operator="in" result="effect1_backgroundBlur_47_182"/>
<feBlend mode="normal" in="SourceGraphic" in2="effect1_backgroundBlur_47_182" result="shape"/>
<feColorMatrix in="SourceAlpha" type="matrix" values="0 0 0 0 0 0 0 0 0 0 0 0 0 0 0 0 0 0 127 0" result="hardAlpha"/>
<feOffset dy="4"/>
<feGaussianBlur stdDeviation="2"/>
<feComposite in2="hardAlpha" operator="arithmetic" k2="-1" k3="1"/>
<feColorMatrix type="matrix" values="0 0 0 0 0 0 0 0 0 0 0 0 0 0 0 0 0 0 0.25 0"/>
<feBlend mode="normal" in2="shape" result="effect2_innerShadow_47_182"/>
</filter>
<filter id="filter1_i_47_182" x="0.839844" y="11.0312" width="28.0566" height="40.9688" filterUnits="userSpaceOnUse" color-interpolation-filters="sRGB">
<feFlood flood-opacity="0" result="BackgroundImageFix"/>
<feBlend mode="normal" in="SourceGraphic" in2="BackgroundImageFix" result="shape"/>
<feColorMatrix in="SourceAlpha" type="matrix" values="0 0 0 0 0 0 0 0 0 0 0 0 0 0 0 0 0 0 127 0" result="hardAlpha"/>
<feOffset dy="4"/>
<feGaussianBlur stdDeviation="2"/>
<feComposite in2="hardAlpha" operator="arithmetic" k2="-1" k3="1"/>
<feColorMatrix type="matrix" values="0 0 0 0 0 0 0 0 0 0 0 0 0 0 0 0 0 0 0.25 0"/>
<feBlend mode="normal" in2="shape" result="effect1_innerShadow_47_182"/>
</filter>
</defs>
</svg>
